<svg width="28" height="20" viewBox="0 0 28 20" fill="none" xmlns="http://www.w3.org/2000/svg">
<path d="M5.80498 10.1814C4.44998 10.5004 3.37898 11.5854 3.07598 12.9434C2.99498 13.3074 3.22398 13.6684 3.58898 13.7504C3.63798 13.7604 3.68798 13.7664 3.73598 13.7664C4.04598 13.7664 4.32398 13.5514 4.39398 13.2374C4.58398 12.3814 5.25898 11.6974 6.11498 11.4954C6.47698 11.4104 6.70198 11.0474 6.61598 10.6834C6.53098 10.3204 6.16698 10.0954 5.80498 10.1814Z" fill="white"/>
<path d="M25.864 9.60054C24.48 7.56854 21.483 3.20654 20.315 1.78854C18.774 -0.0844612 17.363 0.025539 15.92 0.246539C14.477 0.467539 15.275 3.10954 17.19 3.22054C19.105 3.33154 19.581 4.43254 20.883 6.19554C21.247 6.68754 21.623 7.19554 21.949 7.63854C21.754 7.61854 21.554 7.60854 21.353 7.60854C19.082 7.60854 17.1 8.85254 16.04 10.6915H11.957C10.897 8.85254 8.91501 7.60854 6.64401 7.60854C6.44301 7.60854 6.24501 7.61954 6.04701 7.63854C6.37401 7.19554 6.75001 6.68754 7.11401 6.19554C8.41601 4.43254 8.89301 3.33154 10.807 3.22054C12.721 3.10954 13.519 0.467539 12.076 0.246539C10.634 0.025539 9.22301 -0.0844612 7.68101 1.78854C6.51701 3.20754 3.52001 7.56954 2.13601 9.60054C1.13301 10.6935 0.515015 12.1445 0.515015 13.7405C0.515015 17.1215 3.26601 19.8715 6.64701 19.8715C10.028 19.8715 12.778 17.1215 12.778 13.7405C12.778 13.3125 12.734 12.8945 12.65 12.4925H15.352C15.268 12.8945 15.223 13.3125 15.223 13.7405C15.223 17.1215 17.974 19.8715 21.355 19.8715C24.736 19.8715 27.486 17.1215 27.486 13.7405C27.485 12.1435 26.868 10.6905 25.864 9.60054ZM6.64601 18.0705C4.25701 18.0705 2.31401 16.1285 2.31401 13.7395C2.31401 11.3505 4.25701 9.40754 6.64601 9.40754C9.03401 9.40754 10.977 11.3505 10.977 13.7395C10.977 16.1285 9.03401 18.0705 6.64601 18.0705ZM21.354 18.0705C18.965 18.0705 17.022 16.1285 17.022 13.7395C17.022 11.3505 18.965 9.40754 21.354 9.40754C23.743 9.40754 25.685 11.3505 25.685 13.7395C25.685 16.1285 23.743 18.0705 21.354 18.0705Z" fill="white"/>
<path d="M20.513 10.1814C19.159 10.5004 18.087 11.5854 17.784 12.9444C17.704 13.3084 17.932 13.6694 18.297 13.7514C18.347 13.7614 18.396 13.7674 18.444 13.7674C18.754 13.7674 19.032 13.5524 19.102 13.2384C19.292 12.3824 19.967 11.6984 20.823 11.4964C21.185 11.4114 21.411 11.0484 21.325 10.6844C21.239 10.3204 20.874 10.0954 20.513 10.1814Z" fill="white"/>
</svg>
