<svg width="333" height="357" viewBox="0 0 333 357" fill="none" xmlns="http://www.w3.org/2000/svg">
<g filter="url(#filter0_d)">
<path d="M327.733 132.187L311.524 77.3947L322.254 0L269.745 20.0907L207.418 26.4831L200.34 26.9397H155.137L82.9928 7.30569L78.655 125.567L4 180.359V260.722L67.6965 333.779L104.682 347.934L106.508 348.619L113.585 348.39L203.308 346.564L206.048 307.296L190.98 297.707L191.665 297.022L194.176 295.196L197.373 292.913L260.841 171.227L261.069 170.542L261.526 167.118L323.852 138.352L328.875 136.069L327.733 132.187ZM271.343 26.9397L313.579 10.7302L304.218 77.623L317.232 121.685L235.727 43.1493L235.271 42.6926L216.093 32.419L271.343 26.9397ZM89.6136 16.4378L153.995 34.0171H193.72L85.9607 119.631L89.6136 16.4378ZM78.1984 134.699V134.927L82.3079 131.731L132.078 163.693L150.799 226.248L155.365 241.773L131.621 258.439L13.5887 183.556L78.1984 134.699ZM162.899 241.773L157.648 224.422L140.753 168.031L144.178 169.629L164.954 194.514L190.067 224.193L187.556 277.16L186.871 289.26L182.761 288.803L162.899 241.773ZM174.314 286.977L137.329 263.233L157.876 248.622L174.314 286.977ZM71.5777 327.615L10.8491 257.982V196.34L31.6247 230.129L98.0608 337.66L71.5777 327.615ZM198.286 310.949L196.231 339.486L108.791 341.313L39.3869 228.988L18.6114 195.199L198.286 310.949ZM187.327 209.582L148.972 164.15L148.744 163.921L148.287 163.693L88.2438 126.936L200.569 37.67L203.765 122.142L196.916 219.856H196.459L195.774 219.627L187.327 209.582ZM194.633 282.182L195.09 273.279L197.144 232.184L201.482 228.075L203.765 225.792L209.244 220.769L247.599 180.588L194.633 282.182ZM262.211 158.671L204.678 214.605L211.071 122.599V122.37L207.646 36.5285L230.933 48.8568L318.373 132.872L262.211 158.671Z" fill="#E9DDC4"/>
</g>
<defs>
<filter id="filter0_d" x="0" y="0" width="332.875" height="356.619" filterUnits="userSpaceOnUse" color-interpolation-filters="sRGB">
<feFlood flood-opacity="0" result="BackgroundImageFix"/>
<feColorMatrix in="SourceAlpha" type="matrix" values="0 0 0 0 0 0 0 0 0 0 0 0 0 0 0 0 0 0 127 0" result="hardAlpha"/>
<feOffset dy="4"/>
<feGaussianBlur stdDeviation="2"/>
<feComposite in2="hardAlpha" operator="out"/>
<feColorMatrix type="matrix" values="0 0 0 0 0 0 0 0 0 0 0 0 0 0 0 0 0 0 0.25 0"/>
<feBlend mode="normal" in2="BackgroundImageFix" result="effect1_dropShadow"/>
<feBlend mode="normal" in="SourceGraphic" in2="effect1_dropShadow" result="shape"/>
</filter>
</defs>
</svg>
